<?xml version="1.0" encoding="UTF-8"?>
<!DOCTYPE svg PUBLIC "-//W3C//DTD SVG 1.1//EN" "http://www.w3.org/Graphics/SVG/1.1/DTD/svg11.dtd">
<svg xmlns="http://www.w3.org/2000/svg" version="1.1" width="512px" height="512px" style="shape-rendering:geometricPrecision; text-rendering:geometricPrecision; image-rendering:optimizeQuality; fill-rule:evenodd; clip-rule:evenodd" xmlns:xlink="http://www.w3.org/1999/xlink">
<g><path style="opacity:0.915" fill="#090706" d="M 103.5,33.5 C 128.646,42.0665 150.979,55.2332 170.5,73C 196.404,96.8965 216.904,124.73 232,156.5C 247.667,152.5 263.333,152.5 279,156.5C 303.277,104.224 341.11,65.0569 392.5,39C 397.206,37.2647 401.873,35.4313 406.5,33.5C 410.63,49.8651 413.13,66.5318 414,83.5C 416.706,116.293 415.706,148.959 411,181.5C 407.863,199.926 401.03,216.76 390.5,232C 409.21,232.066 427.877,232.733 446.5,234C 450.573,236.475 452.573,240.142 452.5,245C 443.822,293.89 434.822,342.724 425.5,391.5C 434.902,400.778 437.569,411.778 433.5,424.5C 434.833,424.5 436.167,424.5 437.5,424.5C 438.038,429.204 437.038,433.538 434.5,437.5C 446.815,438.499 459.149,438.832 471.5,438.5C 471.5,451.5 471.5,464.5 471.5,477.5C 327.5,477.5 183.5,477.5 39.5,477.5C 39.5,464.5 39.5,451.5 39.5,438.5C 51.8378,438.667 64.1712,438.5 76.5,438C 73.2587,434.106 71.9253,429.606 72.5,424.5C 73.675,424.719 74.675,424.386 75.5,423.5C 70.645,409.902 73.9783,398.902 85.5,390.5C 76.9388,345.526 68.4388,300.526 60,255.5C 58.7821,250.545 58.4488,245.545 59,240.5C 61.1195,236.044 64.6195,233.544 69.5,233C 86.5098,232.833 103.51,232.333 120.5,231.5C 106.024,207.947 98.1909,182.28 97,154.5C 94.0076,113.887 96.1742,73.5537 103.5,33.5 Z"/></g>
<g><path style="opacity:1" fill="#e06e77" d="M 114.5,43.5 C 141.31,63.8202 162.143,89.1535 177,119.5C 182.161,130.301 184.827,141.634 185,153.5C 182.738,150.793 180.071,149.793 177,150.5C 176.677,155.956 176.51,161.289 176.5,166.5C 172.999,162.646 168.833,161.313 164,162.5C 165.018,169.903 166.351,177.236 168,184.5C 159.943,195.562 150.777,205.729 140.5,215C 136.167,218.333 131.833,218.333 127.5,215C 119.7,208.877 113.7,201.377 109.5,192.5C 108.542,190.698 107.875,188.698 107.5,186.5C 119.709,193.236 127.209,189.903 130,176.5C 130.333,163.5 130.667,150.5 131,137.5C 132.167,135 134,133.167 136.5,132C 145.747,133.073 150.413,129.073 150.5,120C 150.023,114.234 148.523,108.734 146,103.5C 135.171,82.4957 122.838,62.4957 109,43.5C 108.722,44.4158 108.222,45.0825 107.5,45.5C 107.5,44.1667 107.5,42.8333 107.5,41.5C 109.921,41.8782 112.254,42.5448 114.5,43.5 Z"/></g>
<g><path style="opacity:1" fill="#e06e77" d="M 403.5,42.5 C 388.102,62.2622 374.936,83.5955 364,106.5C 361.612,113.314 360.945,120.314 362,127.5C 365.412,130.879 369.578,132.379 374.5,132C 377.057,132.685 378.891,134.185 380,136.5C 379.814,150.829 379.814,165.162 380,179.5C 380.71,185.304 383.877,188.637 389.5,189.5C 394.843,188.327 399.843,186.327 404.5,183.5C 403.866,187.373 402.866,191.039 401.5,194.5C 397.511,202 392.177,208.5 385.5,214C 381.497,217.404 377.164,218.071 372.5,216C 360.876,206.713 351.043,195.88 343,183.5C 344.949,176.643 346.282,169.643 347,162.5C 341.725,161.29 337.392,162.956 334,167.5C 334.456,161.87 334.456,156.204 334,150.5C 332.951,149.483 331.784,149.316 330.5,150C 329.315,151.353 327.981,152.52 326.5,153.5C 326.053,144.592 327.553,135.925 331,127.5C 344.863,94.475 366.03,67.1417 394.5,45.5C 397.236,43.0311 400.236,42.0311 403.5,42.5 Z"/></g>
<g><path style="opacity:1" fill="#ed8792" d="M 403.5,42.5 C 412.112,89.4239 412.445,136.424 404.5,183.5C 399.843,186.327 394.843,188.327 389.5,189.5C 383.877,188.637 380.71,185.304 380,179.5C 379.814,165.162 379.814,150.829 380,136.5C 378.891,134.185 377.057,132.685 374.5,132C 369.578,132.379 365.412,130.879 362,127.5C 360.945,120.314 361.612,113.314 364,106.5C 374.936,83.5955 388.102,62.2622 403.5,42.5 Z"/></g>
<g><path style="opacity:1" fill="#ed8892" d="M 107.5,186.5 C 99.5533,139.473 99.5533,92.4733 107.5,45.5C 108.222,45.0825 108.722,44.4158 109,43.5C 122.838,62.4957 135.171,82.4957 146,103.5C 148.523,108.734 150.023,114.234 150.5,120C 150.413,129.073 145.747,133.073 136.5,132C 134,133.167 132.167,135 131,137.5C 130.667,150.5 130.333,163.5 130,176.5C 127.209,189.903 119.709,193.236 107.5,186.5 Z"/></g>
<g><path style="opacity:1" fill="#f49339" d="M 394.5,45.5 C 366.03,67.1417 344.863,94.475 331,127.5C 327.553,135.925 326.053,144.592 326.5,153.5C 327.981,152.52 329.315,151.353 330.5,150C 331.784,149.316 332.951,149.483 334,150.5C 334.456,156.204 334.456,161.87 334,167.5C 337.392,162.956 341.725,161.29 347,162.5C 346.282,169.643 344.949,176.643 343,183.5C 351.043,195.88 360.876,206.713 372.5,216C 377.164,218.071 381.497,217.404 385.5,214C 392.177,208.5 397.511,202 401.5,194.5C 398.604,207.959 392.77,219.959 384,230.5C 382.667,229.167 381.333,227.833 380,226.5C 380.446,228.883 381.612,231.05 383.5,233C 352.168,233.5 320.835,233.667 289.5,233.5C 281.039,209.782 275.039,185.449 271.5,160.5C 284.632,161.577 297.298,164.577 309.5,169.5C 310.696,169.154 310.696,168.654 309.5,168C 307.807,167.153 306.14,166.32 304.5,165.5C 304.642,154.598 307.142,144.265 312,134.5C 315.825,126.181 320.158,118.181 325,110.5C 333.52,98.1089 342.02,85.7755 350.5,73.5C 363.465,61.673 378.132,52.3397 394.5,45.5 Z"/></g>
<g><path style="opacity:1" fill="#f49339" d="M 114.5,43.5 C 131.22,51.1807 146.553,60.8473 160.5,72.5C 159.475,72.8966 159.308,73.5632 160,74.5C 176.161,94.1366 189.828,115.47 201,138.5C 204.309,147.214 206.143,156.214 206.5,165.5C 205.571,166.315 204.571,167.148 203.5,168C 215.476,164.223 227.81,161.723 240.5,160.5C 236.423,185.4 230.09,209.734 221.5,233.5C 190.493,233.833 159.493,233.5 128.5,232.5C 132.652,227.453 132.318,226.787 127.5,230.5C 118.307,219.443 112.307,206.776 109.5,192.5C 113.7,201.377 119.7,208.877 127.5,215C 131.833,218.333 136.167,218.333 140.5,215C 150.777,205.729 159.943,195.562 168,184.5C 166.351,177.236 165.018,169.903 164,162.5C 168.833,161.313 172.999,162.646 176.5,166.5C 176.51,161.289 176.677,155.956 177,150.5C 180.071,149.793 182.738,150.793 185,153.5C 184.827,141.634 182.161,130.301 177,119.5C 162.143,89.1535 141.31,63.8202 114.5,43.5 Z"/></g>
<g><path style="opacity:1" fill="#f47a21" d="M 160.5,72.5 C 188.499,96.1666 210.499,124.5 226.5,157.5C 219.899,160.366 213.232,163.033 206.5,165.5C 206.143,156.214 204.309,147.214 201,138.5C 189.828,115.47 176.161,94.1366 160,74.5C 159.308,73.5632 159.475,72.8966 160.5,72.5 Z"/></g>
<g><path style="opacity:1" fill="#f37921" d="M 350.5,73.5 C 342.02,85.7755 333.52,98.1089 325,110.5C 320.158,118.181 315.825,126.181 312,134.5C 307.142,144.265 304.642,154.598 304.5,165.5C 297.974,163.064 291.64,160.397 285.5,157.5C 300.943,124.578 322.61,96.5779 350.5,73.5 Z"/></g>
<g><path style="opacity:1" fill="#fdfcfa" d="M 271.5,160.5 C 275.039,185.449 281.039,209.782 289.5,233.5C 266.833,233.5 244.167,233.5 221.5,233.5C 230.09,209.734 236.423,185.4 240.5,160.5C 250.735,159.182 261.069,159.182 271.5,160.5 Z"/></g>
<g><path style="opacity:1" fill="#fffbf6" d="M 203.5,207.5 C 207.839,206.846 211.673,207.846 215,210.5C 215.738,213.212 215.071,215.545 213,217.5C 206.915,222.063 200.082,223.897 192.5,223C 189.278,221.01 188.778,218.51 191,215.5C 194.671,211.923 198.838,209.256 203.5,207.5 Z"/></g>
<g><path style="opacity:1" fill="#fffbf6" d="M 298.5,207.5 C 307.409,207.079 314.909,210.079 321,216.5C 322.14,219.528 321.306,221.695 318.5,223C 311.967,224.158 305.967,222.824 300.5,219C 294.897,215.796 294.23,211.962 298.5,207.5 Z"/></g>
<g><path style="opacity:1" fill="#c6daf2" d="M 436.5,238.5 C 396.983,284.538 351.983,324.038 301.5,357C 271.924,375.619 240.258,389.619 206.5,399C 172.128,407.593 137.795,407.593 103.5,399C 99.2273,398.055 95.2273,396.555 91.5,394.5C 82.6477,344.755 73.3143,295.088 63.5,245.5C 63.4499,242.426 64.7832,240.259 67.5,239C 190.5,238.5 313.5,238.333 436.5,238.5 Z"/></g>
<g><path style="opacity:1" fill="#b0cce7" d="M 436.5,238.5 C 442.428,237.123 446.095,239.289 447.5,245C 434.804,309.377 422.804,373.877 411.5,438.5C 307.5,438.5 203.5,438.5 99.5,438.5C 97.1084,423.75 94.4417,409.083 91.5,394.5C 95.2273,396.555 99.2273,398.055 103.5,399C 137.795,407.593 172.128,407.593 206.5,399C 240.258,389.619 271.924,375.619 301.5,357C 351.983,324.038 396.983,284.538 436.5,238.5 Z"/></g>
<g><path style="opacity:1" fill="#fdfefc" d="M 250.5,341.5 C 262.044,340.208 266.877,345.208 265,356.5C 258.295,365.732 251.629,365.732 245,356.5C 244.333,353.5 244.333,350.5 245,347.5C 246.36,344.977 248.193,342.977 250.5,341.5 Z"/></g>
<g><path style="opacity:1" fill="#f2f2f0" d="M 84.5,397.5 C 85.5,397.5 86.5,397.5 87.5,397.5C 89.1667,406.833 90.8333,416.167 92.5,425.5C 89.1501,425.665 85.8168,425.498 82.5,425C 76.756,415.353 77.4226,406.186 84.5,397.5 Z"/></g>
<g><path style="opacity:1" fill="#f0f0ee" d="M 423.5,398.5 C 426.051,400.578 427.884,403.244 429,406.5C 429.667,410.833 429.667,415.167 429,419.5C 427.507,424.895 424.007,426.895 418.5,425.5C 420.04,416.468 421.706,407.468 423.5,398.5 Z"/></g>
<g><path style="opacity:1" fill="#c0d3ea" d="M 78.5,430.5 C 83.544,430.173 88.544,430.506 93.5,431.5C 94.3742,433.747 94.7076,436.08 94.5,438.5C 88.9161,439.475 84.0827,438.142 80,434.5C 79.2086,433.255 78.7086,431.922 78.5,430.5 Z"/></g>
<g><path style="opacity:1" fill="#c0d4eb" d="M 417.5,430.5 C 422.214,430.173 426.88,430.507 431.5,431.5C 428.345,437.454 423.345,439.788 416.5,438.5C 416.401,435.763 416.735,433.096 417.5,430.5 Z"/></g>
<g><path style="opacity:1" fill="#b98067" d="M 43.5,443.5 C 184.833,443.5 326.167,443.5 467.5,443.5C 467.5,452.833 467.5,462.167 467.5,471.5C 326.167,471.5 184.833,471.5 43.5,471.5C 43.5,462.167 43.5,452.833 43.5,443.5 Z"/></g>
</svg>
