<?xml version="1.0" encoding="UTF-8"?>
<!DOCTYPE svg PUBLIC "-//W3C//DTD SVG 1.1//EN" "http://www.w3.org/Graphics/SVG/1.1/DTD/svg11.dtd">
<svg xmlns="http://www.w3.org/2000/svg" version="1.1" width="1595px" height="761px" style="shape-rendering:geometricPrecision; text-rendering:geometricPrecision; image-rendering:optimizeQuality; fill-rule:evenodd; clip-rule:evenodd" xmlns:xlink="http://www.w3.org/1999/xlink">
<g><path style="opacity:0.666" fill="#eef5fc" d="M 51.5,-0.5 C 115.5,-0.5 179.5,-0.5 243.5,-0.5C 249.538,37.1372 233.704,57.8039 196,61.5C 173.029,58.8432 151.196,52.3432 130.5,42C 103.149,29.3309 76.816,15.1642 51.5,-0.5 Z"/></g>
<g><path style="opacity:0.667" fill="#eef5fb" d="M -0.5,244.5 C -0.5,217.167 -0.5,189.833 -0.5,162.5C 16.5105,172.503 33.8438,181.669 51.5,190C 34.6791,168.685 17.3458,147.851 -0.5,127.5C -0.5,98.1667 -0.5,68.8333 -0.5,39.5C 0.800102,35.9428 2.13344,32.2761 3.5,28.5C 4.00161,27.479 4.66828,27.3123 5.5,28C 46.9608,71.7789 85.7941,117.612 122,165.5C 133.44,181.291 142.773,198.291 150,216.5C 156.082,233.877 154.082,250.21 144,265.5C 130.567,279.756 114.067,285.256 94.5,282C 77.9355,278.812 61.9355,273.812 46.5,267C 30.8115,259.489 15.1448,251.989 -0.5,244.5 Z"/></g>
<g><path style="opacity:0.668" fill="#eef4fc" d="M 1594.5,160.5 C 1594.5,184.167 1594.5,207.833 1594.5,231.5C 1578.97,226.867 1563.3,223.034 1547.5,220C 1562.74,234.413 1578.41,248.247 1594.5,261.5C 1594.5,291.833 1594.5,322.167 1594.5,352.5C 1554.86,323.384 1517.69,291.05 1483,255.5C 1470.84,242.514 1461.17,227.847 1454,211.5C 1445.04,176.583 1457.87,154.417 1492.5,145C 1508.54,142.908 1524.54,143.241 1540.5,146C 1557.67,148.876 1574.67,152.542 1591.5,157C 1592.81,157.985 1593.81,159.152 1594.5,160.5 Z"/></g>
<g><path style="opacity:0.667" fill="#eef5fb" d="M -0.5,347.5 C 15.962,367.142 31.1287,387.808 45,409.5C 54.6949,424.252 60.1949,440.418 61.5,458C 59.0425,487.955 42.7092,503.455 12.5,504.5C 8.15617,504.214 3.82283,503.88 -0.5,503.5C -0.5,451.5 -0.5,399.5 -0.5,347.5 Z"/></g>
<g><path style="opacity:0.667" fill="#eef5fc" d="M 1594.5,424.5 C 1594.5,449.167 1594.5,473.833 1594.5,498.5C 1567.51,489.444 1540.18,481.944 1512.5,476C 1538.82,500.832 1566.15,524.332 1594.5,546.5C 1594.5,576.5 1594.5,606.5 1594.5,636.5C 1554.84,606.348 1516.17,574.848 1478.5,542C 1468.33,531.833 1458.17,521.667 1448,511.5C 1439.94,502.372 1432.6,492.705 1426,482.5C 1416.04,466.455 1413.7,449.455 1419,431.5C 1428.49,411.657 1444.32,401.157 1466.5,400C 1483.32,399.287 1499.99,400.62 1516.5,404C 1542.95,409.279 1568.95,416.112 1594.5,424.5 Z"/></g>
</svg>
