<?xml version="1.0" encoding="UTF-8"?>
<!DOCTYPE svg PUBLIC "-//W3C//DTD SVG 1.1//EN" "http://www.w3.org/Graphics/SVG/1.1/DTD/svg11.dtd">
<svg xmlns="http://www.w3.org/2000/svg" version="1.1" width="344px" height="500px" style="shape-rendering:geometricPrecision; text-rendering:geometricPrecision; image-rendering:optimizeQuality; fill-rule:evenodd; clip-rule:evenodd" xmlns:xlink="http://www.w3.org/1999/xlink">
<g><path style="opacity:0.665" fill="#eef5fc" d="M 66.5,-0.5 C 118.833,-0.5 171.167,-0.5 223.5,-0.5C 227.972,29.268 215.305,45.268 185.5,47.5C 167.727,45.9654 150.727,41.4654 134.5,34C 111.056,23.7786 88.389,12.2786 66.5,-0.5 Z"/></g>
<g><path style="opacity:0.666" fill="#eef5fc" d="M -0.5,225.5 C -0.5,207.167 -0.5,188.833 -0.5,170.5C 9.96382,174.822 20.6305,178.655 31.5,182C 38.707,183.934 46.0403,184.767 53.5,184.5C 53.8761,177.678 53.0428,171.012 51,164.5C 38.4429,130.699 21.2762,99.6988 -0.5,71.5C -0.5,54.8333 -0.5,38.1667 -0.5,21.5C 1.73698,14.7564 5.73698,9.25644 11.5,5C 12.5,4.33333 13.5,4.33333 14.5,5C 37.4378,34.3644 58.2712,65.1977 77,97.5C 87.8325,116.829 96.1658,137.162 102,158.5C 104.824,171.442 105.157,184.442 103,197.5C 96.5271,219.306 82.0271,231.806 59.5,235C 38.8182,236.164 18.8182,232.997 -0.5,225.5 Z"/></g>
<g><path style="opacity:0.666" fill="#eef4fc" d="M 343.5,219.5 C 343.5,236.5 343.5,253.5 343.5,270.5C 337.496,270.3 331.496,269.966 325.5,269.5C 321.627,269.299 317.961,269.966 314.5,271.5C 322.893,282.227 332.559,291.561 343.5,299.5C 343.5,320.833 343.5,342.167 343.5,363.5C 320.453,348.304 299.287,330.638 280,310.5C 273.882,303.044 268.549,295.044 264,286.5C 252.431,256.642 261.431,235.642 291,223.5C 308.231,218.884 325.731,217.55 343.5,219.5 Z"/></g>
<g><path style="opacity:0.665" fill="#eef5fc" d="M -0.5,366.5 C 16.1964,385.869 29.3631,407.536 39,431.5C 45.905,461.378 34.2384,478.378 4,482.5C 3.16667,482.167 2.33333,481.833 1.5,481.5C 1.00569,479.974 0.339027,478.641 -0.5,477.5C -0.5,440.5 -0.5,403.5 -0.5,366.5 Z"/></g>
<g><path style="opacity:0.665" fill="#eef5fc" d="M 343.5,399.5 C 343.5,416.833 343.5,434.167 343.5,451.5C 311.883,444.179 280.216,437.013 248.5,430C 229.358,425.952 210.025,424.286 190.5,425C 200.451,433.973 211.118,441.973 222.5,449C 254.514,465.338 286.18,482.171 317.5,499.5C 280.833,499.5 244.167,499.5 207.5,499.5C 185.493,487.558 165.66,472.558 148,454.5C 136.204,441.78 131.204,426.78 133,409.5C 136.471,395.36 144.971,385.526 158.5,380C 176.033,374.052 194.033,372.052 212.5,374C 227.94,375.18 243.273,377.18 258.5,380C 286.959,386.032 315.292,392.532 343.5,399.5 Z"/></g>
</svg>
